<svg width="24" height="24" viewBox="0 0 24 24" fill="none" xmlns="http://www.w3.org/2000/svg">
<path fill-rule="evenodd" clip-rule="evenodd" d="M4.41 4.0015C4.22268 4.03469 4.07244 4.17136 4.01976 4.35295C3.96707 4.53648 4.02171 4.73173 4.16025 4.86058L11.2938 11.9988L4.16025 19.137C4.06463 19.2307 4.01 19.3576 4.00805 19.4904C4.00805 19.6251 4.05878 19.752 4.15244 19.8477C4.2461 19.9434 4.37293 19.998 4.50561 20C4.63829 20 4.76707 19.9492 4.86268 19.8555L12.0117 12.7173L19.1452 19.8555C19.2408 19.9492 19.3677 20 19.5023 20C19.635 19.998 19.7618 19.9434 19.8555 19.8477C19.9491 19.752 19.9998 19.6251 19.9979 19.4904C19.9979 19.3576 19.9433 19.2307 19.8477 19.137L12.7141 11.9988L19.8477 4.86058C19.996 4.71805 20.0408 4.49937 19.9608 4.30996C19.8808 4.11862 19.6935 3.99756 19.4886 4.00146C19.3599 4.00342 19.2369 4.05418 19.1452 4.14204L12.0117 11.2803L4.86268 4.14204C4.76707 4.05028 4.63634 3.99951 4.50365 4.00146C4.47243 3.99951 4.44122 3.99951 4.41 4.00146L4.41 4.0015Z" fill="black"/>
</svg>
