<svg width="207" height="195" viewBox="0 0 207 195" fill="none" xmlns="http://www.w3.org/2000/svg">
<path d="M92.0353 107.81C92.0353 82.9791 112.165 62.8494 136.996 62.8494C161.827 62.8494 181.957 82.9791 181.957 107.81C181.957 132.641 161.827 152.771 136.996 152.771C112.165 152.771 92.0353 132.641 92.0353 107.81Z" fill="#5CC9F5"/>
<path fill-rule="evenodd" clip-rule="evenodd" d="M114.963 29.9285C95.9414 13.9673 67.5821 16.4484 51.6209 35.4702C35.6597 54.492 38.1409 82.8513 57.1626 98.8125L114.963 29.9285Z" fill="#6638F0"/>
<g filter="url(#filter0_b_2_64)">
<path d="M69.5549 48.1158C69.5549 45.9066 71.3457 44.1158 73.5549 44.1158H129.249C131.459 44.1158 133.249 45.9066 133.249 48.1158V103.81C133.249 106.019 131.459 107.81 129.249 107.81H73.5549C71.3457 107.81 69.5549 106.019 69.5549 103.81V48.1158Z" fill="#F4F2F9" fill-opacity="0.64"/>
</g>
<rect x="54.5679" y="122.797" width="22.4804" height="22.4804" rx="11.2402" fill="#F2F1F4"/>
<rect x="144.49" y="21.6353" width="22.4804" height="22.4804" rx="11.2402" fill="#F2F1F4"/>
<path fill-rule="evenodd" clip-rule="evenodd" d="M189.92 164.136C190.034 163.551 190.538 163.138 191.126 163.138C191.721 163.138 192.228 163.557 192.34 164.13L192.341 164.132C193.649 170.748 198.715 175.951 205.242 177.474V178.315H205.249V177.476C205.43 177.518 205.611 177.557 205.794 177.593L205.797 177.594C206.374 177.707 206.789 178.21 206.789 178.801C206.789 179.395 206.372 179.898 205.797 180.006L205.797 180.006L205.786 180.008C205.606 180.044 205.427 180.083 205.249 180.124V179.279H205.242V180.126C198.711 181.647 193.649 186.859 192.341 193.462L192.34 193.465C192.226 194.052 191.715 194.468 191.133 194.464L191.133 194.463L191.119 194.464C190.535 194.468 190.029 194.05 189.921 193.478L189.921 193.478L189.919 193.468C188.567 186.669 183.259 181.36 176.466 180.008L176.463 180.007C175.881 179.894 175.464 179.386 175.464 178.801C175.464 178.215 175.881 177.708 176.463 177.594L176.466 177.593C176.646 177.558 176.825 177.519 177.003 177.478V178.315H177.01V177.476C183.541 175.955 188.603 170.751 189.919 164.141L189.92 164.136ZM192.032 168.783L191.125 166.844L190.22 168.785C188.351 172.794 185.126 176.025 181.111 177.894L179.163 178.801L181.111 179.707C185.126 181.576 188.351 184.807 190.22 188.817L191.125 190.758L192.032 188.818C193.909 184.807 197.134 181.576 201.149 179.707L203.097 178.801L201.149 177.894C197.134 176.025 193.909 172.794 192.032 168.783Z" fill="#6638F0"/>
<path fill-rule="evenodd" clip-rule="evenodd" d="M8.91845 1.2904C8.98863 0.929453 9.29966 0.674469 9.66276 0.674469C10.0294 0.674469 10.3425 0.933058 10.4117 1.2867L10.412 1.28779C11.2189 5.36944 14.3446 8.57915 18.3711 9.51883V10.0378H18.3756V9.51989C18.4869 9.5458 18.5988 9.56998 18.7114 9.5924L18.7133 9.59278C19.0693 9.66249 19.3255 9.97305 19.3255 10.3372C19.3255 10.7036 19.068 11.0143 18.7136 11.0808L18.7136 11.0807L18.7069 11.0821C18.5958 11.1042 18.4854 11.128 18.3756 11.1536V10.6323H18.3711V11.1546C14.3421 12.0933 11.2193 15.3083 10.412 19.3819L10.4116 19.3841C10.3412 19.7461 10.0258 20.0025 9.66699 20L9.66699 20L9.65854 20C9.29786 20.0025 8.98572 19.7448 8.91907 19.3919L8.9191 19.3918L8.91794 19.386C8.08376 15.1911 4.80906 11.9164 0.618619 11.0821L0.616709 11.0817C0.257755 11.0114 -1.13249e-05 10.6985 -1.13249e-05 10.3372C-1.13249e-05 9.97607 0.257751 9.66308 0.61673 9.59277L0.618614 9.5924C0.729553 9.57031 0.839851 9.54652 0.949479 9.52104V10.0378H0.953993V9.51999C4.98306 8.58172 8.10605 5.37094 8.91792 1.2931L8.91845 1.2904ZM10.2215 4.1572L9.66173 2.96088L9.10362 4.15799C7.95031 6.63177 5.96111 8.62502 3.48383 9.77797L2.28206 10.3373L3.48383 10.8966C5.9611 12.0495 7.95031 14.0428 9.10362 16.5166L9.66173 17.7137L10.2215 16.5174C11.3795 14.0429 13.369 12.0495 15.8462 10.8966L17.048 10.3373L15.8462 9.77797C13.369 8.62506 11.3795 6.63167 10.2215 4.1572Z" fill="#6638F0"/>
<path fill-rule="evenodd" clip-rule="evenodd" d="M30.4563 143.673C30.57 143.088 31.0742 142.674 31.6628 142.674C32.257 142.674 32.7645 143.094 32.8768 143.667L32.8772 143.669C34.1852 150.285 39.2517 155.487 45.7784 157.011V157.852H45.7857V157.012C45.9661 157.054 46.1475 157.094 46.3301 157.13L46.3332 157.131C46.9102 157.244 47.3255 157.747 47.3255 158.337C47.3255 158.931 46.9081 159.435 46.3337 159.542L46.3337 159.542L46.3228 159.545C46.1427 159.58 45.9637 159.619 45.7857 159.66V158.816H45.7784V159.662C39.2476 161.184 34.1858 166.395 32.8772 172.998L32.8766 173.002C32.7624 173.588 32.2512 174.004 31.6696 174L31.6696 174L31.6559 174C31.0713 174.004 30.5653 173.586 30.4573 173.014L30.4573 173.014L30.4555 173.005C29.1033 166.205 23.7952 160.897 17.0028 159.545L16.9997 159.544C16.4178 159.43 16 158.923 16 158.337C16 157.752 16.4178 157.244 16.9997 157.13L17.0028 157.13C17.1826 157.094 17.3614 157.056 17.5391 157.014V157.852H17.5464V157.013C24.0773 155.492 29.1394 150.287 30.4554 143.677L30.4563 143.673ZM32.5685 148.32L31.6611 146.381L30.7564 148.321C28.887 152.331 25.6626 155.562 21.6471 157.431L19.6991 158.337L21.6471 159.244C25.6626 161.113 28.887 164.344 30.7564 168.354L31.6611 170.294L32.5685 168.355C34.4454 164.344 37.6703 161.113 41.6857 159.244L43.6337 158.337L41.6857 157.431C37.6703 155.562 34.4454 152.331 32.5685 148.32Z" fill="#5CC9F5"/>
<path fill-rule="evenodd" clip-rule="evenodd" d="M170.866 0.658919C170.942 0.272783 171.274 0 171.663 0C172.055 0 172.39 0.276639 172.464 0.654968L172.464 0.656131C173.328 5.02268 176.671 8.45643 180.979 9.46171V10.0169H180.984V9.46284C181.103 9.49056 181.223 9.51643 181.343 9.54041L181.345 9.54082C181.726 9.6154 182 9.94763 182 10.3372C182 10.7291 181.724 11.0616 181.345 11.1327L181.345 11.1326L181.338 11.1341C181.219 11.1577 181.101 11.1832 180.984 11.2105V10.6529H180.979V11.2117C176.669 12.2159 173.328 15.6553 172.464 20.0132L172.464 20.0156C172.389 20.4029 172.051 20.6771 171.667 20.6745L171.667 20.6744L171.658 20.6745C171.272 20.6771 170.938 20.4014 170.867 20.0239L170.867 20.0239L170.866 20.0176C169.974 15.5299 166.47 12.0266 161.987 11.1341L161.985 11.1337C161.601 11.0585 161.326 10.7237 161.326 10.3372C161.326 9.95086 161.601 9.61603 161.985 9.54081L161.987 9.54041C162.106 9.51679 162.224 9.49133 162.341 9.46407V10.0169H162.346V9.46295C166.656 8.45919 169.997 5.02429 170.866 0.661811L170.866 0.658919ZM172.261 3.72583L171.662 2.44601L171.065 3.72668C169.831 6.37313 167.703 8.50551 165.053 9.73893L163.767 10.3373L165.053 10.9357C167.703 12.1691 169.831 14.3015 171.065 16.9479L171.662 18.2286L172.261 16.9488C173.499 14.3016 175.628 12.169 178.278 10.9357L179.563 10.3373L178.278 9.73893C175.628 8.50555 173.499 6.37303 172.261 3.72583Z" fill="#5CC9F5"/>
<defs>
<filter id="filter0_b_2_64" x="61.5549" y="36.1158" width="79.6945" height="79.6946" filterUnits="userSpaceOnUse" color-interpolation-filters="sRGB">
<feFlood flood-opacity="0" result="BackgroundImageFix"/>
<feGaussianBlur in="BackgroundImageFix" stdDeviation="4"/>
<feComposite in2="SourceAlpha" operator="in" result="effect1_backgroundBlur_2_64"/>
<feBlend mode="normal" in="SourceGraphic" in2="effect1_backgroundBlur_2_64" result="shape"/>
</filter>
</defs>
</svg>
